<svg width="200" height="80" viewBox="0 0 200 80" fill="none" xmlns="http://www.w3.org/2000/svg">
  <path d="M33.5 15H55C62.5 15 68 20.5 68 28C68 35.5 62.5 41 55 41H33.5V15Z" fill="white"/>
  <path d="M33.5 45H58C66 45 72 50.5 72 58.5C72 66.5 66 72 58 72H33.5V45Z" fill="white"/>
  <path d="M80 15H101.5C109 15 114.5 20.5 114.5 28C114.5 35.5 109 41 101.5 41H80V15Z" fill="white"/>
  <path d="M80 45H104.5C112.5 45 118.5 50.5 118.5 58.5C118.5 66.5 112.5 72 104.5 72H80V45Z" fill="white"/>
  <path d="M128 15H166C173.5 15 179 20.5 179 28C179 35.5 173.5 41 166 41H128V15Z" fill="white"/>
  <path d="M20 60C20 66.6274 14.6274 72 8 72C1.37258 72 -4 66.6274 -4 60C-4 53.3726 1.37258 48 8 48C14.6274 48 20 53.3726 20 60Z" fill="white"/>
  <path d="M20 27C20 33.6274 14.6274 39 8 39C1.37258 39 -4 33.6274 -4 27C-4 20.3726 1.37258 15 8 15C14.6274 15 20 20.3726 20 27Z" fill="white"/>
  <path d="M128 70V72H166C173.5 72 179 66.5 179 59C179 51.5 173.5 46 166 46H128V70Z" fill="white"/>
</svg> 